<svg width="145" height="128" viewBox="0 0 145 128" fill="none" xmlns="http://www.w3.org/2000/svg">
<path d="M63.7017 76.385C63.7017 76.1692 63.3933 75.9534 63.2392 75.7375L62.9617 75.4292C62.2438 74.5427 61.3381 73.8266 60.31 73.3325L40.5767 64.0825C39.4841 63.5791 38.2955 63.3184 37.0925 63.3184C35.8895 63.3184 34.7009 63.5791 33.6083 64.0825L13.875 73.3325C12.8521 73.835 11.9481 74.5498 11.2233 75.4292L10.8533 75.5834C10.674 75.7688 10.5186 75.9759 10.3908 76.2C9.65526 77.3631 9.26007 78.7089 9.25 80.085V101.853C9.25413 103.324 9.68057 104.763 10.4786 105.998C11.2767 107.233 12.4127 108.213 13.7517 108.822L33.485 118.072C34.5817 118.58 35.7759 118.843 36.9846 118.843C38.1933 118.843 39.3875 118.58 40.4842 118.072L60.2175 108.822C61.5528 108.222 62.6888 107.254 63.4919 106.03C64.2949 104.806 64.7314 103.379 64.75 101.915V80.085C64.7342 78.7806 64.3724 77.5038 63.7017 76.385ZM36.1058 69.6017C36.3881 69.4795 36.6924 69.4165 37 69.4165C37.3076 69.4165 37.6119 69.4795 37.8942 69.6017L54.3283 77.2484L37 85.2959L19.6717 77.2484L36.1058 69.6017ZM16.3417 103.333C16.0732 103.229 15.8419 103.048 15.6771 102.811C15.5124 102.575 15.4217 102.295 15.4167 102.008V82.0584L33.9167 90.6609V111.381L16.3417 103.333ZM57.6275 103.333L40.0833 111.381V90.6609L58.5833 82.0584V101.915C58.5904 102.221 58.5022 102.522 58.331 102.776C58.1598 103.03 57.914 103.225 57.6275 103.333Z" fill="black"/>
<path d="M97.7017 22.385C97.7017 22.1692 97.3933 21.9534 97.2392 21.7375L96.9617 21.4292C96.2438 20.5427 95.3381 19.8266 94.31 19.3325L74.5767 10.0825C73.4841 9.57907 72.2955 9.31836 71.0925 9.31836C69.8895 9.31836 68.7009 9.57907 67.6083 10.0825L47.875 19.3325C46.8521 19.835 45.9481 20.5498 45.2233 21.4292L44.8533 21.5834C44.674 21.7688 44.5186 21.9759 44.3908 22.2C43.6553 23.3631 43.2601 24.7089 43.25 26.085V47.8534C43.2541 49.324 43.6806 50.7626 44.4786 51.9979C45.2767 53.2332 46.4127 54.2133 47.7517 54.8217L67.485 64.0717C68.5817 64.5798 69.7759 64.843 70.9846 64.843C72.1933 64.843 73.3875 64.5798 74.4842 64.0717L94.2175 54.8217C95.5528 54.2222 96.6888 53.2536 97.4919 52.0299C98.2949 50.8063 98.7314 49.3785 98.75 47.915V26.085C98.7342 24.7806 98.3724 23.5038 97.7017 22.385ZM70.1058 15.6017C70.3881 15.4795 70.6924 15.4165 71 15.4165C71.3076 15.4165 71.6119 15.4795 71.8942 15.6017L88.3283 23.2484L71 31.2959L53.6717 23.2484L70.1058 15.6017ZM50.3417 49.3334C50.0732 49.2293 49.8419 49.0476 49.6771 48.8114C49.5124 48.5753 49.4217 48.2954 49.4167 48.0075V28.0584L67.9167 36.6609V57.3809L50.3417 49.3334ZM91.6275 49.3334L74.0833 57.3809V36.6609L92.5833 28.0584V47.915C92.5904 48.2213 92.5022 48.5222 92.331 48.7762C92.1598 49.0303 91.914 49.2249 91.6275 49.3334Z" fill="black"/>
<path d="M134.702 76.385C134.702 76.1692 134.393 75.9534 134.239 75.7375L133.962 75.4292C133.244 74.5427 132.338 73.8266 131.31 73.3325L111.577 64.0825C110.484 63.5791 109.295 63.3184 108.092 63.3184C106.89 63.3184 105.701 63.5791 104.608 64.0825L84.875 73.3325C83.8521 73.835 82.9481 74.5498 82.2233 75.4292L81.8533 75.5834C81.674 75.7688 81.5186 75.9759 81.3908 76.2C80.6553 77.3631 80.2601 78.7089 80.25 80.085V101.853C80.2541 103.324 80.6806 104.763 81.4786 105.998C82.2767 107.233 83.4127 108.213 84.7517 108.822L104.485 118.072C105.582 118.58 106.776 118.843 107.985 118.843C109.193 118.843 110.387 118.58 111.484 118.072L131.218 108.822C132.553 108.222 133.689 107.254 134.492 106.03C135.295 104.806 135.731 103.379 135.75 101.915V80.085C135.734 78.7806 135.372 77.5038 134.702 76.385ZM107.106 69.6017C107.388 69.4795 107.692 69.4165 108 69.4165C108.308 69.4165 108.612 69.4795 108.894 69.6017L125.328 77.2484L108 85.2959L90.6717 77.2484L107.106 69.6017ZM87.3417 103.333C87.0732 103.229 86.8419 103.048 86.6771 102.811C86.5124 102.575 86.4217 102.295 86.4167 102.008V82.0584L104.917 90.6609V111.381L87.3417 103.333ZM128.627 103.333L111.083 111.381V90.6609L129.583 82.0584V101.915C129.59 102.221 129.502 102.522 129.331 102.776C129.16 103.03 128.914 103.225 128.627 103.333Z" fill="black"/>
</svg>
