<svg width="131" height="131" viewBox="0 0 131 131" fill="none" xmlns="http://www.w3.org/2000/svg">
<path d="M85.3825 17.4667C83.7014 17.4667 82.0209 18.099 80.7513 19.3686C78.2121 21.9078 78.2121 26.0958 80.7513 28.6348L85.6512 33.5303L81.7535 37.428C75.2051 33.1024 67.3749 30.5667 58.9504 30.5667C36.0644 30.5667 17.4665 49.1652 17.4665 72.05C17.4665 94.9348 36.0657 113.533 58.9504 113.533C81.8351 113.533 100.434 94.9348 100.434 72.05C100.434 63.6269 97.8986 55.7968 93.5729 49.2494L97.4707 45.3517L102.366 50.2472C104.905 52.7864 109.089 52.7864 111.629 50.2472C114.168 47.708 114.168 43.5243 111.629 40.9851L90.0164 19.3692C88.7468 18.0996 87.0619 17.4673 85.3809 17.4673L85.3825 17.4667ZM85.3825 21.7949C85.9339 21.7949 86.4852 22.0191 86.9262 22.4602L108.543 44.0717C109.425 44.9537 109.425 46.277 108.543 47.1591C107.661 48.0411 106.337 48.0411 105.455 47.1591L83.8387 25.5476C82.9566 24.6656 82.9566 23.3422 83.8387 22.4602C84.2797 22.0192 84.831 21.7949 85.3824 21.7949H85.3825ZM58.9506 34.9333C79.4762 34.9333 96.0678 51.5251 96.0678 72.05C96.0678 92.5749 79.4754 109.167 58.9506 109.167C38.4259 109.167 21.8334 92.5749 21.8334 72.05C21.8334 51.5251 38.4259 34.9333 58.9506 34.9333V34.9333ZM88.7383 36.6177L94.3845 42.2636L90.9644 45.6836C89.2681 43.6276 87.3743 41.7339 85.3183 40.0377L88.7383 36.6177Z" fill="black"/>
<path d="M74.1766 54.5833C73.8241 54.5917 73.4789 54.6853 73.1704 54.8562L53.5253 65.7709C53.1688 65.9689 52.8749 66.2628 52.6769 66.6194L41.7628 86.2656C41.5302 86.6807 41.4396 87.1604 41.5047 87.6317C41.5699 88.103 41.7872 88.5401 42.1236 88.8766C42.46 89.213 42.8971 89.4303 43.3684 89.4954C43.8396 89.5606 44.3193 89.47 44.7343 89.2374L64.3795 78.3227C64.736 78.1247 65.0299 77.8307 65.2279 77.4742L76.142 57.8279C76.3294 57.4913 76.4245 57.1111 76.4175 56.7259C76.4104 56.3406 76.3016 55.9641 76.102 55.6345C75.9024 55.305 75.6191 55.0341 75.2809 54.8495C74.9427 54.6649 74.5617 54.573 74.1766 54.5833L74.1766 54.5833ZM68.6089 62.3898L61.7108 74.8052L49.2962 81.7036L56.1942 69.2883L68.6089 62.3898Z" fill="black"/>
</svg>
