<svg width="125" height="75" viewBox="0 0 125 75" fill="none" xmlns="http://www.w3.org/2000/svg">
<rect x="1.5" y="1.5" width="122" height="72" rx="18.5" stroke="black" stroke-width="3"/>
<path d="M33.1981 50.912C34.4141 50.912 35.4061 50.736 36.1741 50.384C36.9741 50 37.5821 49.504 37.9981 48.896C38.4461 48.256 38.7501 47.536 38.9101 46.736C39.0701 45.904 39.1501 45.056 39.1501 44.192V43.328H45.4861V44.192C45.4861 48.192 44.4301 51.28 42.3181 53.456C40.2381 55.6 37.1981 56.672 33.1981 56.672C29.3581 56.672 26.3181 55.504 24.0781 53.168C21.8381 50.832 20.7181 47.424 20.7181 42.944V35.456C20.7181 33.312 21.0061 31.392 21.5821 29.696C22.1581 27.968 22.9901 26.528 24.0781 25.376C25.1661 24.192 26.4781 23.296 28.0141 22.688C29.5501 22.048 31.2781 21.728 33.1981 21.728C35.1821 21.728 36.9421 22.016 38.4781 22.592C40.0141 23.168 41.2941 24 42.3181 25.088C43.3741 26.176 44.1581 27.488 44.6701 29.024C45.2141 30.56 45.4861 32.288 45.4861 34.208V35.072H39.1501V34.208C39.1501 33.408 39.0541 32.608 38.8621 31.808C38.6701 31.008 38.3501 30.288 37.9021 29.648C37.4541 29.008 36.8461 28.496 36.0781 28.112C35.3101 27.696 34.3501 27.488 33.1981 27.488C32.1421 27.488 31.2301 27.696 30.4621 28.112C29.6941 28.496 29.0541 29.04 28.5421 29.744C28.0301 30.416 27.6461 31.216 27.3901 32.144C27.1661 33.04 27.0541 33.984 27.0541 34.976V43.424C27.0541 44.512 27.1661 45.52 27.3901 46.448C27.6141 47.344 27.9661 48.128 28.4461 48.8C28.9261 49.472 29.5501 50 30.3181 50.384C31.1181 50.736 32.0781 50.912 33.1981 50.912ZM68.2527 32.672C68.2527 31.328 67.7247 30.16 66.6687 29.168C65.6447 28.176 64.1887 27.68 62.3007 27.68C60.7007 27.68 59.4367 28.016 58.5087 28.688C57.5807 29.328 57.1167 30.208 57.1167 31.328C57.1167 31.904 57.2287 32.432 57.4527 32.912C57.6767 33.36 58.0607 33.776 58.6047 34.16C59.1807 34.512 59.9167 34.832 60.8127 35.12C61.7407 35.408 62.9087 35.68 64.3167 35.936C67.8367 36.576 70.5247 37.648 72.3807 39.152C74.2367 40.656 75.1647 42.88 75.1647 45.824V46.4C75.1647 47.968 74.8767 49.392 74.3007 50.672C73.7567 51.92 72.9567 52.992 71.9007 53.888C70.8447 54.784 69.5647 55.472 68.0607 55.952C66.5567 56.432 64.8607 56.672 62.9727 56.672C60.7647 56.672 58.8127 56.368 57.1167 55.76C55.4527 55.12 54.0607 54.256 52.9407 53.168C51.8207 52.048 50.9727 50.752 50.3967 49.28C49.8207 47.776 49.5327 46.144 49.5327 44.384V42.944H55.8687V44.096C55.8687 46.112 56.4447 47.728 57.5967 48.944C58.7807 50.128 60.6047 50.72 63.0687 50.72C64.9887 50.72 66.4127 50.304 67.3407 49.472C68.2687 48.64 68.7327 47.648 68.7327 46.496C68.7327 45.952 68.6367 45.44 68.4447 44.96C68.2527 44.448 67.9167 44 67.4367 43.616C66.9567 43.2 66.3007 42.832 65.4687 42.512C64.6367 42.192 63.5807 41.92 62.3007 41.696C60.6047 41.408 59.0527 41.04 57.6447 40.592C56.2367 40.112 55.0047 39.488 53.9487 38.72C52.9247 37.952 52.1247 36.992 51.5487 35.84C50.9727 34.688 50.6847 33.28 50.6847 31.616V31.328C50.6847 29.952 50.9567 28.688 51.5007 27.536C52.0767 26.352 52.8607 25.328 53.8527 24.464C54.8767 23.6 56.0927 22.928 57.5007 22.448C58.9407 21.968 60.5407 21.728 62.3007 21.728C64.2847 21.728 66.0447 22.016 67.5807 22.592C69.1167 23.136 70.3967 23.888 71.4207 24.848C72.4767 25.808 73.2607 26.912 73.7727 28.16C74.3167 29.408 74.5887 30.72 74.5887 32.096V33.824H68.2527V32.672ZM97.6433 32.672C97.6433 31.328 97.1153 30.16 96.0593 29.168C95.0353 28.176 93.5793 27.68 91.6913 27.68C90.0913 27.68 88.8273 28.016 87.8993 28.688C86.9713 29.328 86.5073 30.208 86.5073 31.328C86.5073 31.904 86.6193 32.432 86.8433 32.912C87.0673 33.36 87.4513 33.776 87.9953 34.16C88.5713 34.512 89.3073 34.832 90.2033 35.12C91.1313 35.408 92.2993 35.68 93.7073 35.936C97.2273 36.576 99.9153 37.648 101.771 39.152C103.627 40.656 104.555 42.88 104.555 45.824V46.4C104.555 47.968 104.267 49.392 103.691 50.672C103.147 51.92 102.347 52.992 101.291 53.888C100.235 54.784 98.9553 55.472 97.4513 55.952C95.9473 56.432 94.2513 56.672 92.3633 56.672C90.1553 56.672 88.2033 56.368 86.5073 55.76C84.8433 55.12 83.4513 54.256 82.3313 53.168C81.2113 52.048 80.3633 50.752 79.7873 49.28C79.2113 47.776 78.9233 46.144 78.9233 44.384V42.944H85.2593V44.096C85.2593 46.112 85.8353 47.728 86.9873 48.944C88.1713 50.128 89.9953 50.72 92.4593 50.72C94.3793 50.72 95.8033 50.304 96.7313 49.472C97.6593 48.64 98.1233 47.648 98.1233 46.496C98.1233 45.952 98.0273 45.44 97.8353 44.96C97.6433 44.448 97.3073 44 96.8273 43.616C96.3473 43.2 95.6913 42.832 94.8593 42.512C94.0273 42.192 92.9713 41.92 91.6913 41.696C89.9953 41.408 88.4433 41.04 87.0353 40.592C85.6273 40.112 84.3953 39.488 83.3393 38.72C82.3153 37.952 81.5153 36.992 80.9393 35.84C80.3633 34.688 80.0753 33.28 80.0753 31.616V31.328C80.0753 29.952 80.3473 28.688 80.8913 27.536C81.4673 26.352 82.2513 25.328 83.2433 24.464C84.2673 23.6 85.4833 22.928 86.8913 22.448C88.3313 21.968 89.9313 21.728 91.6913 21.728C93.6753 21.728 95.4353 22.016 96.9713 22.592C98.5073 23.136 99.7873 23.888 100.811 24.848C101.867 25.808 102.651 26.912 103.163 28.16C103.707 29.408 103.979 30.72 103.979 32.096V33.824H97.6433V32.672Z" fill="black"/>
</svg>
