<svg width="188" height="57" viewBox="0 0 188 57" fill="none" xmlns="http://www.w3.org/2000/svg">
<path d="M28 5.66663C23.3851 5.66663 18.8738 7.0351 15.0367 9.599C11.1995 12.1629 8.20883 15.8071 6.44278 20.0707C4.67674 24.3343 4.21466 29.0258 5.11498 33.5521C6.0153 38.0783 8.23759 42.2359 11.5008 45.4991C14.764 48.7623 18.9216 50.9846 23.4479 51.8849C27.9741 52.7853 32.6656 52.3232 36.9292 50.5571C41.1929 48.7911 44.837 45.8004 47.4009 41.9633C49.9648 38.1261 51.3333 33.6149 51.3333 29C51.3333 25.9358 50.7298 22.9016 49.5572 20.0707C48.3845 17.2397 46.6658 14.6675 44.4991 12.5008C42.3324 10.3341 39.7602 8.61538 36.9292 7.44277C34.0983 6.27016 31.0641 5.66663 28 5.66663ZM28 47.6666C24.3081 47.6666 20.699 46.5718 17.6293 44.5207C14.5596 42.4696 12.1671 39.5543 10.7542 36.1434C9.34138 32.7325 8.97172 28.9793 9.69198 25.3583C10.4122 21.7373 12.1901 18.4112 14.8006 15.8006C17.4112 13.1901 20.7373 11.4122 24.3583 10.692C27.9793 9.97171 31.7325 10.3414 35.1434 11.7542C38.5543 13.167 41.4696 15.5596 43.5207 18.6293C45.5718 21.699 46.6666 25.308 46.6666 29C46.6666 33.9507 44.7 38.6986 41.1993 42.1993C37.6986 45.7 32.9507 47.6666 28 47.6666Z" fill="black"/>
<path d="M28 15C25.834 15 23.7568 15.8604 22.2253 17.392C20.6937 18.9235 19.8333 21.0008 19.8333 23.1667C19.8333 23.7855 20.0791 24.379 20.5167 24.8166C20.9543 25.2542 21.5478 25.5 22.1666 25.5C22.7855 25.5 23.379 25.2542 23.8166 24.8166C24.2541 24.379 24.5 23.7855 24.5 23.1667C24.5 22.4745 24.7053 21.7978 25.0898 21.2222C25.4744 20.6466 26.021 20.198 26.6606 19.9331C27.3001 19.6682 28.0039 19.5989 28.6828 19.734C29.3617 19.869 29.9854 20.2023 30.4749 20.6918C30.9643 21.1813 31.2977 21.805 31.4327 22.4839C31.5678 23.1628 31.4985 23.8666 31.2336 24.5061C30.9687 25.1456 30.52 25.6923 29.9445 26.0768C29.3689 26.4614 28.6922 26.6667 28 26.6667C27.3811 26.6667 26.7876 26.9125 26.3501 27.3501C25.9125 27.7877 25.6666 28.3812 25.6666 29V33.6667C25.6666 34.2855 25.9125 34.879 26.3501 35.3166C26.7876 35.7542 27.3811 36 28 36C28.6188 36 29.2123 35.7542 29.6499 35.3166C30.0875 34.879 30.3333 34.2855 30.3333 33.6667V30.96C32.2189 30.4094 33.8419 29.1957 34.9031 27.5427C35.9644 25.8897 36.3924 23.9089 36.1082 21.9652C35.824 20.0215 34.8469 18.2461 33.3568 16.9661C31.8668 15.6861 29.9643 14.9878 28 15Z" fill="black"/>
<path d="M28 43C29.2887 43 30.3334 41.9554 30.3334 40.6667C30.3334 39.378 29.2887 38.3334 28 38.3334C26.7114 38.3334 25.6667 39.378 25.6667 40.6667C25.6667 41.9554 26.7114 43 28 43Z" fill="black"/>
<path d="M149.042 34.4959V8.87504C149.042 8.26725 148.8 7.68436 148.37 7.25459C147.941 6.82482 147.358 6.58337 146.75 6.58337C146.142 6.58337 145.559 6.82482 145.13 7.25459C144.7 7.68436 144.458 8.26725 144.458 8.87504V34.4959C143.131 34.9776 141.984 35.8563 141.174 37.0125C140.364 38.1687 139.929 39.5464 139.929 40.9584C139.929 42.3703 140.364 43.748 141.174 44.9042C141.984 46.0605 143.131 46.9392 144.458 47.4209V50.125C144.458 50.7328 144.7 51.3157 145.13 51.7455C145.559 52.1753 146.142 52.4167 146.75 52.4167C147.358 52.4167 147.941 52.1753 148.37 51.7455C148.8 51.3157 149.042 50.7328 149.042 50.125V47.4209C150.369 46.9392 151.516 46.0605 152.326 44.9042C153.136 43.748 153.571 42.3703 153.571 40.9584C153.571 39.5464 153.136 38.1687 152.326 37.0125C151.516 35.8563 150.369 34.9776 149.042 34.4959ZM146.75 43.25C146.297 43.25 145.854 43.1156 145.477 42.8638C145.1 42.612 144.806 42.2541 144.633 41.8354C144.459 41.4166 144.414 40.9558 144.502 40.5113C144.591 40.0667 144.809 39.6584 145.13 39.3379C145.45 39.0174 145.858 38.7992 146.303 38.7107C146.747 38.6223 147.208 38.6677 147.627 38.8412C148.046 39.0146 148.404 39.3083 148.655 39.6852C148.907 40.0621 149.042 40.5051 149.042 40.9584C149.042 41.5662 148.8 42.1491 148.37 42.5788C147.941 43.0086 147.358 43.25 146.75 43.25Z" fill="black"/>
<path d="M181.125 31.7917C181.121 30.3733 180.678 28.9908 179.858 27.8339C179.037 26.6769 177.879 25.802 176.542 25.3292V8.87504C176.542 8.26725 176.3 7.68436 175.87 7.25459C175.441 6.82482 174.858 6.58337 174.25 6.58337C173.642 6.58337 173.059 6.82482 172.63 7.25459C172.2 7.68436 171.958 8.26725 171.958 8.87504V25.3292C170.631 25.8109 169.484 26.6896 168.674 27.8458C167.864 29.0021 167.429 30.3798 167.429 31.7917C167.429 33.2036 167.864 34.5814 168.674 35.7376C169.484 36.8938 170.631 37.7725 171.958 38.2542V50.125C171.958 50.7328 172.2 51.3157 172.63 51.7455C173.059 52.1753 173.642 52.4167 174.25 52.4167C174.858 52.4167 175.441 52.1753 175.87 51.7455C176.3 51.3157 176.542 50.7328 176.542 50.125V38.2542C177.879 37.7814 179.037 36.9065 179.858 35.7496C180.678 34.5926 181.121 33.2101 181.125 31.7917ZM174.25 34.0834C173.797 34.0834 173.354 33.949 172.977 33.6972C172.6 33.4453 172.306 33.0874 172.133 32.6687C171.959 32.2499 171.914 31.7892 172.002 31.3446C172.091 30.9001 172.309 30.4918 172.63 30.1713C172.95 29.8508 173.358 29.6325 173.803 29.5441C174.247 29.4557 174.708 29.501 175.127 29.6745C175.546 29.8479 175.904 30.1417 176.155 30.5185C176.407 30.8954 176.542 31.3385 176.542 31.7917C176.542 32.3995 176.3 32.9824 175.87 33.4122C175.441 33.8419 174.858 34.0834 174.25 34.0834Z" fill="black"/>
<path d="M167.375 13.4584C167.379 12.1972 167.035 10.9593 166.382 9.88019C165.729 8.8011 164.792 7.9224 163.673 7.34025C162.554 6.75811 161.297 6.49495 160.039 6.57959C158.78 6.66422 157.569 7.09338 156.539 7.8201C155.508 8.54682 154.697 9.5431 154.194 10.6999C153.692 11.8567 153.517 13.1294 153.69 14.3788C153.862 15.6282 154.375 16.8061 155.172 17.7836C155.969 18.7611 157.019 19.5005 158.208 19.9209V50.1251C158.208 50.7328 158.45 51.3157 158.88 51.7455C159.309 52.1753 159.892 52.4167 160.5 52.4167C161.108 52.4167 161.691 52.1753 162.12 51.7455C162.55 51.3157 162.792 50.7328 162.792 50.1251V19.9209C164.129 19.4481 165.287 18.5732 166.108 17.4162C166.928 16.2593 167.371 14.8768 167.375 13.4584ZM160.5 15.7501C160.047 15.7501 159.604 15.6157 159.227 15.3638C158.85 15.112 158.556 14.7541 158.383 14.3354C158.209 13.9166 158.164 13.4559 158.252 13.0113C158.341 12.5668 158.559 12.1584 158.88 11.8379C159.2 11.5174 159.608 11.2992 160.053 11.2108C160.497 11.1223 160.958 11.1677 161.377 11.3412C161.796 11.5146 162.154 11.8083 162.405 12.1852C162.657 12.5621 162.792 13.0051 162.792 13.4584C162.792 14.0662 162.55 14.6491 162.12 15.0788C161.691 15.5086 161.108 15.7501 160.5 15.7501Z" fill="black"/>
<path d="M111.6 16.625H110.674C110.958 15.8648 111.111 15.0616 111.125 14.25C111.075 12.3181 110.263 10.4845 108.866 9.14949C107.468 7.81451 105.6 7.08668 103.667 7.12497C101.769 7.16598 99.916 7.71671 98.3031 8.71951C96.6903 9.72231 95.3767 11.1403 94.5 12.825C93.6232 11.1403 92.3097 9.72231 90.6968 8.71951C89.084 7.71671 87.2312 7.16598 85.3325 7.12497C83.4004 7.08668 81.5316 7.81451 80.1343 9.14949C78.7371 10.4845 77.9248 12.3181 77.875 14.25C77.889 15.0616 78.0416 15.8648 78.3262 16.625H77.4C76.775 16.6843 76.168 16.867 75.6141 17.1623C75.0601 17.4577 74.5702 17.86 74.1727 18.3458C73.7752 18.8317 73.4779 19.3915 73.2981 19.993C73.1182 20.5945 73.0594 21.2256 73.125 21.85V30.4C73.014 31.55 73.3097 32.7026 73.9606 33.6572C74.6115 34.6119 75.5764 35.3081 76.6875 35.625V46.0037C76.7608 47.081 77.2505 48.0874 78.0528 48.81C78.8552 49.5325 79.9072 49.9145 80.9862 49.875H108.014C109.108 49.9136 110.174 49.5187 110.979 48.776C111.784 48.0333 112.263 47.0029 112.312 45.9087V35.625C113.424 35.3081 114.389 34.6119 115.039 33.6572C115.69 32.7026 115.986 31.55 115.875 30.4V21.85C115.941 21.2256 115.882 20.5945 115.702 19.993C115.522 19.3915 115.225 18.8317 114.827 18.3458C114.43 17.86 113.94 17.4577 113.386 17.1623C112.832 16.867 112.225 16.6843 111.6 16.625ZM111.125 21.85V30.4C111.153 30.557 111.153 30.7179 111.125 30.875H96.875V21.375H111.125C111.153 21.532 111.153 21.6929 111.125 21.85ZM103.667 11.875C104.34 11.8358 105.002 12.0629 105.508 12.5074C106.015 12.9518 106.326 13.5778 106.375 14.25C106.326 14.9222 106.015 15.5481 105.508 15.9926C105.002 16.437 104.34 16.6642 103.667 16.625H97.825C98.2406 15.3562 99.0123 14.2337 100.048 13.3915C101.084 12.5493 102.341 12.0228 103.667 11.875ZM82.625 14.25C82.6738 13.5778 82.9852 12.9518 83.4918 12.5074C83.9985 12.0629 84.6597 11.8358 85.3325 11.875C86.6552 12.0271 87.9064 12.5555 88.9378 13.3975C89.9692 14.2394 90.7374 15.3595 91.1512 16.625H85.3325C84.6597 16.6642 83.9985 16.437 83.4918 15.9926C82.9852 15.5481 82.6738 14.9222 82.625 14.25ZM77.875 21.85C77.8465 21.6929 77.8465 21.532 77.875 21.375H92.125V30.875H77.875C77.8465 30.7179 77.8465 30.557 77.875 30.4V21.85ZM81.4375 35.625H92.125V45.125H81.4375V35.625ZM96.875 45.125V35.625H107.562V45.125H96.875Z" fill="black"/>
</svg>
