<svg width="140" height="96" viewBox="0 0 140 96" fill="none" xmlns="http://www.w3.org/2000/svg">
<g clip-path="url(#clip0_75_276)">
<path d="M10.1308 22.7645C11.2026 25.019 12.1212 27.2736 12.8868 29.5537C10.3604 31.2959 7.70654 33.3967 5.563 36.0355C6.5327 31.5521 8.0638 27.1198 10.1308 22.7645ZM41.3397 26.8124C41.0845 32.4231 39.4514 37.1628 36.4912 40.9289C32.4848 38.7769 28.6826 37.6496 25.11 37.5471C25.9522 37.0347 26.7943 36.5479 27.5598 36.0868C32.051 33.4223 37.1292 30.4248 41.2632 26.8893C41.2632 26.8636 41.3142 26.838 41.3397 26.8124ZM24.5997 46.2066V50.5364C28.453 50.5364 32.8421 53.7645 34.4753 54.9686C40.2169 59.1959 43.3046 65.319 43.6619 73.2355C43.6364 73.2099 43.5853 73.1843 43.5598 73.1587C39.4258 69.6231 34.3477 66.6256 29.8565 63.9612C25.5694 61.4248 19.0877 57.5818 18.5263 55.5322C18.5008 55.4554 18.4753 55.3017 18.4753 55.2248C18.4498 53.7132 20.6699 51.2793 23.1707 50.6901C23.6045 50.5876 24.0893 50.5364 24.5742 50.5364L24.5997 46.2066ZM5.92025 60.9124C7.60447 63.1669 9.74801 65.2934 12.4019 67.2661C11.7384 69.0851 10.9729 70.8785 10.1308 72.6719C8.29346 68.8033 6.88995 64.8835 5.92025 60.9124ZM10.1308 17C9.05901 17 8.01276 17.4355 7.52791 18.3066C3.77671 25.4545 0 35.5488 0 47.7182C0 59.8876 3.77671 69.9818 7.55343 77.1297C8.01276 78.0008 9.08453 78.4364 10.1563 78.4364C11.2281 78.4364 12.2998 78.0008 12.7592 77.1297C14.2903 74.2347 15.7959 70.8785 17.0718 67.0868C17.378 66.1901 16.9952 65.2165 16.0766 64.576C11.8405 61.6297 8.44657 58.1455 6.76236 53.4826C6.1244 51.6893 5.12919 48.8198 5.81818 45.1818C6.83892 39.8273 10.9218 35.9843 16.4593 32.3975C17.429 31.7826 17.8373 30.8091 17.5311 29.8868C16.1786 25.4802 14.4689 21.586 12.7592 18.3322C12.2743 17.4355 11.2026 17 10.1308 17ZM43.3046 19.9975C42.6156 19.9975 41.9522 20.2281 41.4673 20.7149C40.3445 21.919 39.2982 22.8669 38.4306 23.5843C28.9633 31.6802 13.7799 37.0603 12.0702 43.3628C11.8915 44.0289 11.866 44.6438 11.866 44.7463C11.866 45.4893 11.9936 46.2322 12.2488 46.9496C12.3509 47.257 12.7337 47.4364 13.1164 47.4364C13.3971 47.4364 13.7033 47.3339 13.882 47.1289C15.7959 44.7719 18.6029 42.9017 21.5375 42.2099C22.5327 41.9793 23.5534 41.8512 24.5742 41.8512C29.0144 41.8512 33.327 43.9264 36.5678 45.9504C36.7464 46.0529 36.9506 46.1041 37.1292 46.1041C37.4099 46.1041 37.6651 46.0017 37.8437 45.8479C45.193 38.495 46.1372 28.8107 45.5247 21.5347C45.4482 20.5612 44.4019 19.9975 43.3046 19.9975ZM24.5997 46.2066C23.8086 46.2066 22.992 46.2835 22.201 46.4884C18.0415 47.4876 14.1372 51.4331 14.1882 55.3017C14.1882 55.4041 14.2137 56.019 14.3923 56.6851C16.1021 62.9876 31.2855 68.3678 40.7783 76.4636C41.3142 76.9248 41.9522 77.4884 42.6156 78.1545C43.2281 78.7438 44.0957 79.0256 44.9378 79.0256C46.4434 79.0256 47.8979 78.2058 47.949 76.8736C48.3317 68.8289 46.5965 58.5298 37.0016 51.4843C34.6284 49.7165 29.7033 46.2066 24.5997 46.2066Z" fill="url(#paint0_linear_75_276)"/>
</g>
<path d="M76.16 58.36C73.3333 61.16 69.8933 62.56 65.84 62.56C61.7867 62.56 58.3467 61.16 55.52 58.36C52.72 55.5333 51.32 52.08 51.32 48C51.32 43.92 52.72 40.48 55.52 37.68C58.3467 34.8533 61.7867 33.44 65.84 33.44C69.8933 33.44 73.3333 34.8533 76.16 37.68C78.9867 40.48 80.4 43.92 80.4 48C80.4 52.08 78.9867 55.5333 76.16 58.36ZM59.4 54.6C61.1333 56.3067 63.28 57.16 65.84 57.16C68.4 57.16 70.5467 56.3067 72.28 54.6C74.0133 52.8667 74.88 50.6667 74.88 48C74.88 45.3333 74.0133 43.1333 72.28 41.4C70.5467 39.6667 68.4 38.8 65.84 38.8C63.28 38.8 61.1333 39.6667 59.4 41.4C57.6667 43.1333 56.8 45.3333 56.8 48C56.8 50.6667 57.6667 52.8667 59.4 54.6ZM84.2797 34H89.7997V62H84.2797V34ZM115.423 62.56C112.303 62.56 109.743 61.68 107.743 59.92C105.743 58.16 104.743 55.8 104.743 52.84V34H110.223V52.4C110.223 53.8667 110.636 55.0267 111.463 55.88C112.316 56.7333 113.636 57.16 115.423 57.16C117.209 57.16 118.516 56.7333 119.343 55.88C120.196 55.0267 120.623 53.8667 120.623 52.4V34H126.143V52.84C126.143 55.8 125.143 58.16 123.143 59.92C121.143 61.68 118.569 62.56 115.423 62.56ZM131.116 34H136.636V62H131.116V34Z" fill="#77D1AA"/>
<defs>
<linearGradient id="paint0_linear_75_276" x1="0" y1="48.0036" x2="48.0097" y2="48.0036" gradientUnits="userSpaceOnUse">
<stop stop-color="#23B1E8"/>
<stop offset="0.9994" stop-color="#7BD2A6"/>
</linearGradient>
<clipPath id="clip0_75_276">
<rect width="48" height="62" fill="white" transform="translate(0 17)"/>
</clipPath>
</defs>
</svg>
