<svg width="48" height="62" viewBox="0 0 48 62" fill="none" xmlns="http://www.w3.org/2000/svg">
<g clip-path="url(#clip0_75_276)">
<path d="M10.1308 5.76446C11.2026 8.01901 12.1212 10.2736 12.8868 12.5537C10.3604 14.2959 7.70654 16.3967 5.563 19.0355C6.5327 14.5521 8.0638 10.1198 10.1308 5.76446ZM41.3397 9.8124C41.0845 15.4231 39.4514 20.1628 36.4912 23.9289C32.4848 21.7769 28.6826 20.6496 25.11 20.5471C25.9522 20.0347 26.7943 19.5479 27.5598 19.0868C32.051 16.4223 37.1292 13.4248 41.2632 9.88926C41.2632 9.86364 41.3142 9.83802 41.3397 9.8124ZM24.5997 29.2066V33.5364C28.453 33.5364 32.8421 36.7645 34.4753 37.9686C40.2169 42.1959 43.3046 48.319 43.6619 56.2355C43.6364 56.2099 43.5853 56.1843 43.5598 56.1587C39.4258 52.6231 34.3477 49.6256 29.8565 46.9612C25.5694 44.4248 19.0877 40.5818 18.5263 38.5322C18.5008 38.4554 18.4753 38.3017 18.4753 38.2248C18.4498 36.7132 20.6699 34.2793 23.1707 33.6901C23.6045 33.5876 24.0893 33.5364 24.5742 33.5364L24.5997 29.2066ZM5.92025 43.9124C7.60447 46.1669 9.74801 48.2934 12.4019 50.2661C11.7384 52.0851 10.9729 53.8785 10.1308 55.6719C8.29346 51.8033 6.88995 47.8835 5.92025 43.9124ZM10.1308 0C9.05901 0 8.01276 0.435537 7.52791 1.30661C3.77671 8.45454 0 18.5488 0 30.7182C0 42.8876 3.77671 52.9818 7.55343 60.1297C8.01276 61.0008 9.08453 61.4364 10.1563 61.4364C11.2281 61.4364 12.2998 61.0008 12.7592 60.1297C14.2903 57.2347 15.7959 53.8785 17.0718 50.0868C17.378 49.1901 16.9952 48.2165 16.0766 47.576C11.8405 44.6297 8.44657 41.1455 6.76236 36.4826C6.1244 34.6893 5.12919 31.8198 5.81818 28.1818C6.83892 22.8273 10.9218 18.9843 16.4593 15.3975C17.429 14.7826 17.8373 13.8091 17.5311 12.8868C16.1786 8.48017 14.4689 4.58595 12.7592 1.33223C12.2743 0.435537 11.2026 0 10.1308 0ZM43.3046 2.99752C42.6156 2.99752 41.9522 3.2281 41.4673 3.71488C40.3445 4.91901 39.2982 5.86694 38.4306 6.5843C28.9633 14.6802 13.7799 20.0603 12.0702 26.3628C11.8915 27.0289 11.866 27.6438 11.866 27.7463C11.866 28.4893 11.9936 29.2322 12.2488 29.9496C12.3509 30.257 12.7337 30.4364 13.1164 30.4364C13.3971 30.4364 13.7033 30.3339 13.882 30.1289C15.7959 27.7719 18.6029 25.9017 21.5375 25.2099C22.5327 24.9793 23.5534 24.8512 24.5742 24.8512C29.0144 24.8512 33.327 26.9264 36.5678 28.9504C36.7464 29.0529 36.9506 29.1041 37.1292 29.1041C37.4099 29.1041 37.6651 29.0017 37.8437 28.8479C45.193 21.495 46.1372 11.8107 45.5247 4.53471C45.4482 3.56116 44.4019 2.99752 43.3046 2.99752ZM24.5997 29.2066C23.8086 29.2066 22.992 29.2835 22.201 29.4884C18.0415 30.4876 14.1372 34.4331 14.1882 38.3017C14.1882 38.4041 14.2137 39.019 14.3923 39.6851C16.1021 45.9876 31.2855 51.3678 40.7783 59.4636C41.3142 59.9248 41.9522 60.4884 42.6156 61.1545C43.2281 61.7438 44.0957 62.0256 44.9378 62.0256C46.4434 62.0256 47.8979 61.2058 47.949 59.8736C48.3317 51.8289 46.5965 41.5298 37.0016 34.4843C34.6284 32.7165 29.7033 29.2066 24.5997 29.2066Z" fill="url(#paint0_linear_75_276)"/>
</g>
<defs>
<linearGradient id="paint0_linear_75_276" x1="0" y1="31.0036" x2="48.0097" y2="31.0036" gradientUnits="userSpaceOnUse">
<stop stop-color="#23B1E8"/>
<stop offset="0.9994" stop-color="#7BD2A6"/>
</linearGradient>
<clipPath id="clip0_75_276">
<rect width="48" height="62" fill="white"/>
</clipPath>
</defs>
</svg>
