<svg width="72" height="123" viewBox="0 0 72 123" fill="none" xmlns="http://www.w3.org/2000/svg">
<path d="M12.47 0H58.83C62.26 0 65.38 1.4 67.64 3.66C69.9 5.92 71.3 9.04 71.3 12.47V110.41C71.3 113.84 69.9 116.96 67.64 119.22C65.38 121.48 62.26 122.88 58.83 122.88H12.47C9.04 122.88 5.92 121.48 3.66 119.22C1.4 116.96 0 113.84 0 110.41V12.47C0 9.04 1.4 5.92 3.66 3.66C5.92 1.4 9.04 0 12.47 0ZM28.93 113C28.1 113 27.43 112.33 27.43 111.5C27.43 110.67 28.1 110 28.93 110H42.65C43.48 110 44.15 110.67 44.15 111.5C44.15 112.33 43.48 113 42.65 113H28.93ZM27.65 7.16C28.96 7.16 30.03 8.23 30.03 9.54C30.03 10.85 28.96 11.92 27.65 11.92C26.34 11.92 25.27 10.85 25.27 9.54C25.27 8.23 26.34 7.16 27.65 7.16ZM35.65 7.16C36.96 7.16 38.03 8.23 38.03 9.54C38.03 10.85 36.96 11.92 35.65 11.92C34.33 11.92 33.27 10.85 33.27 9.54C33.27 8.23 34.34 7.16 35.65 7.16ZM43.65 7.16C44.96 7.16 46.03 8.23 46.03 9.54C46.03 10.85 44.96 11.92 43.65 11.92C42.33 11.92 41.27 10.85 41.27 9.54C41.27 8.23 42.34 7.16 43.65 7.16ZM3 99.29H68.31V19.21H3V99.29ZM68.31 102.29H3V110.41C3 113.01 4.07 115.38 5.78 117.1C7.5 118.82 9.87 119.88 12.47 119.88H58.83C61.43 119.88 63.8 118.81 65.52 117.1C67.24 115.38 68.3 113.01 68.3 110.41V102.29H68.31ZM3 16.21H68.31V12.47C68.31 9.87 67.24 7.5 65.53 5.78C63.81 4.06 61.44 3 58.83 3H12.47C9.87 3 7.5 4.06 5.78 5.78C4.06 7.5 3 9.87 3 12.47V16.21Z" fill="black"/>
</svg>
