<svg width="86" height="46" viewBox="0 0 86 46" fill="none" xmlns="http://www.w3.org/2000/svg">
<path d="M30.936 37.064H14.168L11.48 45H0.024L16.28 0.0719986H28.952L45.208 45H33.624L30.936 37.064ZM28.12 28.616L22.552 12.168L17.048 28.616H28.12ZM47.9795 27.08C47.9795 23.4107 48.6622 20.1893 50.0275 17.416C51.4355 14.6427 53.3342 12.5093 55.7235 11.016C58.1128 9.52266 60.7795 8.776 63.7235 8.776C66.2408 8.776 68.4382 9.288 70.3155 10.312C72.2355 11.336 73.7075 12.68 74.7315 14.344V9.288H85.6755V45H74.7315V39.944C73.6648 41.608 72.1715 42.952 70.2515 43.976C68.3742 45 66.1768 45.512 63.6595 45.512C60.7582 45.512 58.1128 44.7653 55.7235 43.272C53.3342 41.736 51.4355 39.5813 50.0275 36.808C48.6622 33.992 47.9795 30.7493 47.9795 27.08ZM74.7315 27.144C74.7315 24.4133 73.9635 22.2587 72.4275 20.68C70.9342 19.1013 69.0995 18.312 66.9235 18.312C64.7475 18.312 62.8915 19.1013 61.3555 20.68C59.8622 22.216 59.1155 24.3493 59.1155 27.08C59.1155 29.8107 59.8622 31.9867 61.3555 33.608C62.8915 35.1867 64.7475 35.976 66.9235 35.976C69.0995 35.976 70.9342 35.1867 72.4275 33.608C73.9635 32.0293 74.7315 29.8747 74.7315 27.144Z" fill="black"/>
</svg>
